# xmcd
#
# Track frame offsets: 
#        150
#        16310
#        31150
#        48052
#        60112
#        74479
#        92587
#        108213
#
# Disc length: 1628 seconds
#
# Revision: 0
# Processed by: cddbd v1.5.2PL0 Copyright (c) Steve Scherf et al.
# Submitted via: ExactAudioCopyFreeDBPlugin 1.0
#
DISCID=53065a08
DTITLE=Katrina Burgoyne - Nashville
DYEAR=2015
DGENRE=Country
TTITLE0=Stuck On Loving You
TTITLE1=When I'm Broken (Feat. Jared Scott)
TTITLE2=Trying To Get To Georgia
TTITLE3=Love Me Like 'I Do'
TTITLE4=Loves Coming On
TTITLE5=When It All Falls Down
TTITLE6=Waiting For Shakespeare
TTITLE7=A Little More Montana Than Manhattan
EXTD=
EXTT0=
EXTT1=
EXTT2=
EXTT3=
EXTT4=
EXTT5=
EXTT6=
EXTT7=
PLAYORDER=
